<?xml version="1.0" encoding="UTF-8" standalone="no"?>
<svg
   version="1.1"
   viewBox="0 0 16 16"
   id="svg7"
   sodipodi:docname="keyboard-hide.svg"
   xmlns:inkscape="http://www.inkscape.org/namespaces/inkscape"
   xmlns:sodipodi="http://sodipodi.sourceforge.net/DTD/sodipodi-0.dtd"
   xmlns="http://www.w3.org/2000/svg"
   xmlns:svg="http://www.w3.org/2000/svg">
  <defs
     id="defs7" />
  <sodipodi:namedview
     id="namedview7"
     pagecolor="#ffffff"
     bordercolor="#5d656b"
     borderopacity="0.25"
     inkscape:showpageshadow="2"
     inkscape:pageopacity="0.0"
     inkscape:pagecheckerboard="0"
     inkscape:deskcolor="#d1d1d1" />
  <path
     d="m5 12 3 4 3-4z"
     fill="#5d656b"
     id="path1" />
  <path
     d="m3 0c-1.108 0-2 0.892-2 2v7c0 1.108 0.892 2 2 2h10c1.108 0 2-0.892 2-2v-7c0-1.108-0.892-2-2-2zm0 1h10c0.554 0 1 0.446 1 1v7c0 0.554-0.446 1-1 1h-10c-0.554 0-1-0.446-1-1v-7c0-0.554 0.446-1 1-1z"
     fill="#5d656b"
     id="path2" />
  <rect
     x="6"
     y="6"
     width="4"
     height="2"
     rx="1"
     ry="1"
     fill="#5d656b"
     id="rect2" />
  <rect
     x="11"
     y="6"
     width="2"
     height="2"
     rx="1"
     ry="1"
     fill="#5d656b"
     id="rect3" />
  <rect
     x="3"
     y="6"
     width="2"
     height="2"
     rx="1"
     ry="1"
     fill="#5d656b"
     id="rect4" />
  <rect
     x="4"
     y="3"
     width="2"
     height="2"
     rx="1"
     ry="1"
     fill="#5d656b"
     id="rect5" />
  <rect
     x="7"
     y="3"
     width="2"
     height="2"
     rx="1"
     ry="1"
     fill="#5d656b"
     id="rect6" />
  <rect
     x="10"
     y="3"
     width="2"
     height="2"
     rx="1"
     ry="1"
     fill="#5d656b"
     id="rect7" />
</svg>
