<?xml version="1.0" encoding="UTF-8"?>
<svg id="svg31" width="64" height="64" version="1.1" xmlns="http://www.w3.org/2000/svg">
 <rect id="rect1" x="4" y="4" width="56" height="56" rx="6" ry="6" fill="#1d2026"/>
 <path id="path1-9" d="m4 54 56-44c0-3.324-2.676-6-6-6h-44c-3.324 0-6 2.676-6 6z" fill="#4c5366" stroke-linecap="round" stroke-linejoin="round" stroke-miterlimit="3.2" stroke-width="2" style="paint-order:markers fill stroke"/>
 <path id="rect15" d="m12 19h43v14h-43z" fill="#ef2025" stroke-width="1.0214"/>
 <path id="path21" d="m13 20v2h16v-2zm0 3v2h24v-2zm0 3v2h11v-2zm0 3v2h6v-2z" fill="#f9f9f9" stroke-width="1.239"/>
 <path id="path22" d="m20 36-4 6-4-6z" fill="#f9f9f9" fill-rule="evenodd" stroke-width="1.239"/>
 <path id="path23" d="m42 47v3h13v-3zm0 5v3h8v-3z" fill="#f9f9f9" stroke-width="1.239"/>
 <path id="path2" d="m12 5h36v9h-36z" fill="#deb538" stroke-width=".98484"/>
 <path id="path4" d="m47 9h4v8h-4z" fill="#deb538" stroke-width="1.0118"/>
 <path id="path5" d="m44 6h2v8h-2zm-5 0h2v8h-2zm-5 0h2v8h-2zm-5 0h2v8h-2zm-5 0h2v8h-2zm-5 0h2v8h-2zm-5 0h2v8h-2z" fill="#7c5e02" stroke-width="1.0118"/>
 <rect id="rect4" x="57" y="19" width="3" height="9" fill="#dcdcdc" stroke-linecap="round" stroke-linejoin="round" stroke-miterlimit="3.2" stroke-width="1.2247" style="paint-order:markers fill stroke"/>
 <rect id="rect4-5" x="4" y="19" width="3" height="16" fill="#dcdcdc" stroke-linecap="round" stroke-linejoin="round" stroke-miterlimit="3.2" stroke-width="1.633" style="paint-order:markers fill stroke"/>
</svg>
