<svg version="1.1" viewBox="0 0 64 64" xmlns="http://www.w3.org/2000/svg">
 <rect transform="scale(-1)" x="-60" y="-60" width="56" height="56" rx="6" ry="6" fill="#1f9960"/>
 <path d="m4 54 56-44c0-3.324-2.676-6-6-6h-44c-3.324 0-6 2.676-6 6z" fill="#0a301e" stroke-linecap="round" stroke-linejoin="round" stroke-miterlimit="3.2" stroke-width="2" style="paint-order:markers fill stroke"/>
 <circle cx="32" cy="32" r="26" color="#000000" fill="#00122b" fill-opacity=".12254" fill-rule="evenodd" stroke-width="1.0833"/>
 <path d="m32 6a26 26 0 0 0-26 26 26 26 0 0 0 5.5566 16.062l40.887-32.125a26 26 0 0 0-20.443-9.9375z" stroke-width="1.0833"/>
 <circle cx="32" cy="32" r="23" color="#000000" fill="#f9f9f9" stroke-width=".95834"/>
 <path d="m31 10 1 3 1-3zm-21 21v2l3-1zm44 0-3 1 3 1zm-22 20-1 3h2z" fill="#f81318"/>
 <path d="m27.135 11-1.4192 0.38062 1.4689 2.6471zm9.7316 0-0.04973 3.0277 1.4689-2.6471zm-15.003 1.9758-1.2719 0.73446 2.1039 2.1766zm20.272 0-0.83392 2.9111 2.1058-2.1766zm-24.851 3.2706-1.0386 1.0386 2.5974 1.5588zm29.43 0-1.5569 2.5974 2.5955-1.5588zm-33.005 4.3456-0.73446 1.2738 2.9111 0.83201zm36.581 0-2.1766 2.1039 2.9111-0.832zm-38.911 5.1221-0.38062 1.4192 3.0277 0.05164zm41.239 0.0019-2.6471 1.4689 3.0277-0.04973zm-38.592 11.099-3.0277 0.05164 0.38062 1.4192zm35.945 0.0019 2.6471 1.4689 0.38062-1.4192zm-34.085 4.4871-2.9111 0.83392 0.73446 1.2719zm32.228 0 2.1766 2.1039 0.73446-1.2719zm-29.271 3.854-2.5974 1.5569 1.0386 1.0386zm26.314 0 1.5569 2.5955 1.0386-1.0386zm-22.46 2.957-2.1058 2.1766 1.2719 0.73446zm18.606 0 0.832 2.9111 1.2738-0.73446zm-14.119 1.8572-1.4708 2.6471 1.4192 0.38062zm9.7106 0 0.04782 3.0277 1.3427-0.3787z" stroke-width=".97929"/>
 <path d="m31 14h2.0002v18h-2.0002z" color="#000000" fill="#2a2a2a" stroke-width="1.0001"/>
 <path d="m44 40-12-7 1-2 12 7z" color="#000000" fill="#2a2a2a"/>
 <path d="m41 48-10-16 2-1z" color="#000000" fill="#1f9960"/>
 <ellipse cx="32" cy="32" rx="2.0002" ry="2" color="#000000" fill="#1f9960" stroke-width="1.0001"/>
</svg>
