<?xml version="1.0" encoding="UTF-8"?>
<!--?xml version="1.0" encoding="UTF-8" standalone="no"?-->
<svg id="svg1" width="64" height="64" version="1.1" viewBox="0 0 64 64" xmlns="http://www.w3.org/2000/svg">
 <!-- Background / base square -->
 <rect id="rect1" x="4" y="4" width="56" height="56" rx="6" ry="6" fill="#3a57c5"/>
 <path id="path1-5" d="m4 54 56-44c0-3.324-2.676-6-6-6h-44c-3.324 0-6 2.676-6 6z" fill="#7087e2" stroke-linecap="round" stroke-linejoin="round" stroke-miterlimit="3.2" stroke-width="2" style="paint-order:markers fill stroke"/>
 <path id="path4" d="m32 13a19 19 0 0 0-19 19 19 19 0 0 0 19 19 19 19 0 0 0 19-19 19 19 0 0 0-19-19zm0 5.7a13.3 13.3 0 0 1 13.3 13.3 13.3 13.3 0 0 1-13.3 13.3 13.3 13.3 0 0 1-13.3-13.3 13.3 13.3 0 0 1 13.3-13.3z" fill="#404080" stroke-linecap="round" stroke-linejoin="round" stroke-miterlimit="3.2" stroke-width=".76" style="paint-order:markers fill stroke"/>
 <path id="path15" d="m48 27-17 2 12 13 5-15z" fill="#8ea1e8" stroke-linecap="round" stroke-linejoin="round" stroke-miterlimit="3.2" style="paint-order:markers fill stroke"/>
 <path id="path14" d="m34 29-5 17 15-3z" fill="#4b6ee9" stroke-linecap="round" stroke-linejoin="round" stroke-miterlimit="3.2" style="paint-order:markers fill stroke"/>
 <path id="path13" d="m35 34-17 2 9 12h2z" fill="#2a51dc" stroke-linecap="round" stroke-linejoin="round" stroke-miterlimit="3.2" stroke-width="1.008" style="paint-order:markers fill stroke"/>
 <path id="path12" d="m21 21-5 17 17-3z" fill="#0030d9" stroke-linecap="round" stroke-linejoin="round" stroke-miterlimit="3.2" stroke-width=".99999" style="paint-order:markers fill stroke"/>
 <path id="path11" d="m35 18-14.982 1.9414v2e-3l-0.017578 1.0566 10 14z" fill="#00239f" stroke-linecap="round" stroke-linejoin="round" stroke-miterlimit="3.2" stroke-width="1.0181" style="paint-order:markers fill stroke"/>
 <path id="path7" d="m35 16-6 14 17-2-9.0859-11.49v0z" fill="#001561" stroke-linecap="round" stroke-linejoin="round" stroke-miterlimit="3.2" style="paint-order:markers fill stroke"/>
 <path id="path17" d="m48 27-17 2v1h16z" fill="#8ea1e8" stroke-linecap="round" stroke-linejoin="round" stroke-miterlimit="3.2" style="paint-order:markers fill stroke"/>
 <path id="path1" d="m32 15c-9.3888 0-17 7.6112-17 17s7.6112 17 17 17 17-7.6112 17-17-7.6112-17-17-17zm0 6c6.0751 0 11 4.9249 11 11s-4.9249 11-11 11-11-4.9249-11-11 4.9249-11 11-11z" fill="#b6c4f7" stroke-linecap="round" stroke-linejoin="round" stroke-miterlimit="3.2" stroke-width=".68" style="paint-order:markers fill stroke"/>
 <circle id="path8" cx="32" cy="32" r="4" fill="#ccd5f5" stroke-linecap="round" stroke-linejoin="round" stroke-miterlimit="3.2" stroke-width=".66667" style="paint-order:markers fill stroke"/>
 <path id="path34" d="m6.5 6h4.5v4h-4.5z" fill="#dfdfdf" stroke-linecap="round" stroke-linejoin="round" stroke-miterlimit="3.2" stroke-width="1.5" style="paint-order:markers fill stroke"/>
 <path id="path35" d="m5.5215 6c-0.18888 0.21153-0.36387 0.43678-0.52148 0.67383v3.3262h3v-4z" fill="#001561" stroke-linecap="round" stroke-linejoin="round" stroke-miterlimit="3.2" stroke-width="1.2247" style="paint-order:markers fill stroke"/>
 <path id="path5" d="m32 21c-6.0751 0-11 4.9249-11 11s4.9249 11 11 11 11-4.9249 11-11-4.9249-11-11-11zm0 1c5.5228 0 10 4.4772 10 10s-4.4772 10-10 10-10-4.4772-10-10 4.4772-10 10-10z" fill="#404080" stroke-linecap="round" stroke-linejoin="round" stroke-miterlimit="3.2" stroke-width=".6875" style="paint-order:markers fill stroke"/>
 <circle id="path54" cx="48" cy="9" r="3" fill="#f10520" stroke-linecap="round" stroke-linejoin="round" stroke-miterlimit="3.2" style="paint-order:markers fill stroke"/>
 <rect id="rect55" x="5" y="13" width="6" height="4" fill="#001561" stroke-linecap="round" stroke-linejoin="round" stroke-miterlimit="3.2" style="paint-order:markers fill stroke"/>
 <rect id="rect56" x="8" y="13" width="3" height="4" fill="#dfdfdf" stroke-linecap="round" stroke-linejoin="round" stroke-miterlimit="3.2" stroke-width=".70711" style="paint-order:markers fill stroke"/>
 <rect id="rect57" x="5" y="20" width="6" height="4" fill="#001561" stroke-linecap="round" stroke-linejoin="round" stroke-miterlimit="3.2" style="paint-order:markers fill stroke"/>
 <rect id="rect58" x="8" y="20" width="3" height="4" fill="#dfdfdf" stroke-linecap="round" stroke-linejoin="round" stroke-miterlimit="3.2" stroke-width=".70711" style="paint-order:markers fill stroke"/>
 <rect id="rect59" x="5" y="27" width="6" height="4" fill="#001561" stroke-linecap="round" stroke-linejoin="round" stroke-miterlimit="3.2" style="paint-order:markers fill stroke"/>
 <rect id="rect60" x="8" y="27" width="3" height="4" fill="#dfdfdf" stroke-linecap="round" stroke-linejoin="round" stroke-miterlimit="3.2" stroke-width=".70711" style="paint-order:markers fill stroke"/>
 <rect id="rect61" x="5" y="34" width="6" height="4" fill="#001561" stroke-linecap="round" stroke-linejoin="round" stroke-miterlimit="3.2" style="paint-order:markers fill stroke"/>
 <rect id="rect62" x="8" y="34" width="3" height="4" fill="#dfdfdf" stroke-linecap="round" stroke-linejoin="round" stroke-miterlimit="3.2" stroke-width=".70711" style="paint-order:markers fill stroke"/>
 <rect id="rect63" x="5" y="41" width="6" height="4" fill="#001561" stroke-linecap="round" stroke-linejoin="round" stroke-miterlimit="3.2" style="paint-order:markers fill stroke"/>
 <rect id="rect64" x="8" y="41" width="3" height="4" fill="#dfdfdf" stroke-linecap="round" stroke-linejoin="round" stroke-miterlimit="3.2" stroke-width=".70711" style="paint-order:markers fill stroke"/>
 <rect id="rect65" x="5" y="48" width="6" height="4" fill="#001561" stroke-linecap="round" stroke-linejoin="round" stroke-miterlimit="3.2" style="paint-order:markers fill stroke"/>
 <rect id="rect66" x="8" y="48" width="3" height="4" fill="#dfdfdf" stroke-linecap="round" stroke-linejoin="round" stroke-miterlimit="3.2" stroke-width=".70711" style="paint-order:markers fill stroke"/>
 <path id="path68" d="m6.5 58h4.5v-4h-4.5z" fill="#dfdfdf" stroke-linecap="round" stroke-linejoin="round" stroke-miterlimit="3.2" stroke-width="1.5" style="paint-order:markers fill stroke"/>
 <path id="path69" d="m5.5215 58c-0.18888-0.21153-0.36387-0.43678-0.52148-0.67383v-3.3262h3v4z" fill="#001561" stroke-linecap="round" stroke-linejoin="round" stroke-miterlimit="3.2" stroke-width="1.2247" style="paint-order:markers fill stroke"/>
 <g id="g71" transform="matrix(-1,0,0,1,64,0)" stroke-linecap="round" stroke-linejoin="round" stroke-miterlimit="3.2">
  <path id="path70" d="m6.5 6h4.5v4h-4.5z" fill="#dfdfdf" stroke-width="1.5" style="paint-order:markers fill stroke"/>
  <path id="path71" d="m5.5215 6c-0.18888 0.21153-0.36387 0.43678-0.52148 0.67383v3.3262h3v-4z" fill="#001561" stroke-width="1.2247" style="paint-order:markers fill stroke"/>
 </g>
 <g id="g72" transform="matrix(-1,0,0,1,64,0)" stroke-linecap="round" stroke-linejoin="round" stroke-miterlimit="3.2">
  <rect id="rect71" x="5" y="13" width="6" height="4" fill="#001561" style="paint-order:markers fill stroke"/>
  <rect id="rect72" x="8" y="13" width="3" height="4" fill="#dfdfdf" stroke-width=".70711" style="paint-order:markers fill stroke"/>
 </g>
 <g id="g74" transform="matrix(-1,0,0,1,64,7)" stroke-linecap="round" stroke-linejoin="round" stroke-miterlimit="3.2">
  <rect id="rect73" x="5" y="13" width="6" height="4" fill="#001561" style="paint-order:markers fill stroke"/>
  <rect id="rect74" x="8" y="13" width="3" height="4" fill="#dfdfdf" stroke-width=".70711" style="paint-order:markers fill stroke"/>
 </g>
 <g id="g76" transform="matrix(-1,0,0,1,64,14)" stroke-linecap="round" stroke-linejoin="round" stroke-miterlimit="3.2">
  <rect id="rect75" x="5" y="13" width="6" height="4" fill="#001561" style="paint-order:markers fill stroke"/>
  <rect id="rect76" x="8" y="13" width="3" height="4" fill="#dfdfdf" stroke-width=".70711" style="paint-order:markers fill stroke"/>
 </g>
 <g id="g78" transform="matrix(-1,0,0,1,64,21)" stroke-linecap="round" stroke-linejoin="round" stroke-miterlimit="3.2">
  <rect id="rect77" x="5" y="13" width="6" height="4" fill="#001561" style="paint-order:markers fill stroke"/>
  <rect id="rect78" x="8" y="13" width="3" height="4" fill="#dfdfdf" stroke-width=".70711" style="paint-order:markers fill stroke"/>
 </g>
 <g id="g80" transform="matrix(-1,0,0,1,64,28)" stroke-linecap="round" stroke-linejoin="round" stroke-miterlimit="3.2">
  <rect id="rect79" x="5" y="13" width="6" height="4" fill="#001561" style="paint-order:markers fill stroke"/>
  <rect id="rect80" x="8" y="13" width="3" height="4" fill="#dfdfdf" stroke-width=".70711" style="paint-order:markers fill stroke"/>
 </g>
 <g id="g82" transform="matrix(-1,0,0,1,64,35)" stroke-linecap="round" stroke-linejoin="round" stroke-miterlimit="3.2">
  <rect id="rect81" x="5" y="13" width="6" height="4" fill="#001561" style="paint-order:markers fill stroke"/>
  <rect id="rect82" x="8" y="13" width="3" height="4" fill="#dfdfdf" stroke-width=".70711" style="paint-order:markers fill stroke"/>
 </g>
 <g id="g83" transform="rotate(180,32,32)" stroke-linecap="round" stroke-linejoin="round" stroke-miterlimit="3.2">
  <path id="path82" d="m6.5 6h4.5v4h-4.5z" fill="#dfdfdf" stroke-width="1.5" style="paint-order:markers fill stroke"/>
  <path id="path83" d="m5.5215 6c-0.18888 0.21153-0.36387 0.43678-0.52148 0.67383v3.3262h3v-4z" fill="#001561" stroke-width="1.2247" style="paint-order:markers fill stroke"/>
 </g>
</svg>
